<!-- Generator: Adobe Illustrator 22.0.0, SVG Export Plug-In  -->
<svg version="1.1"
	 xmlns="http://www.w3.org/2000/svg" xmlns:xlink="http://www.w3.org/1999/xlink" xmlns:a="http://ns.adobe.com/AdobeSVGViewerExtensions/3.0/"
	 x="0px" y="0px" width="162.2px" height="165.4px" viewBox="0 0 162.2 165.4" style="enable-background:new 0 0 162.2 165.4;"
	 xml:space="preserve">
<style type="text/css">
	.st0{fill:#E7402E;}
	.st1{fill:#F4DD50;}
	.st2{fill:#3D100B;}
	.st3{fill:#FFFFFF;}
</style>
<defs>
</defs>
<path class="st0" d="M23.8,74.7C23.2,73.6,23,72,23,70.1c0-1.2,0.3-2.7,1-4.5c0.6-1.8,1.4-3.1,2.2-4c-0.1-1.3,0.1-2.8,0.6-4.6
	c0.5-1.8,1.2-3.1,2.1-3.8c0-8.3,2.7-16.9,8.1-25.7c5.4-8.8,11.9-15,19.3-18.7c8.3-3.9,17.9-5.9,28.9-5.9c8,0,15.9,1.6,23.8,4.9
	c2.9,1.2,5.5,2.6,8,4.1c2.4,1.6,4.6,3.3,6.4,5.1c1.8,1.8,3.4,3.8,4.8,6.1c1.4,2.2,2.7,4.4,3.8,6.5c1.2,2.1,2.1,4.6,2.9,7.5
	c0.7,2.9,1.5,5.5,2.2,8c0.7,2.4,1.4,5.4,1.9,8.8l0.2,0.5c3.3,4.9,4.9,9.3,4.9,13.2c0,0.9-0.3,2.1-0.8,3.7c-0.5,1.6-0.8,2.7-0.8,3.3
	V75c0,0.2,0.1,0.4,0.3,0.5c0.2,0.1,0.3,0.2,0.2,0.2c4.6,6.8,8.2,13.2,10.8,19.1c2.7,6,3.9,12.1,3.8,18.5c0,2.6-0.6,5.5-1.8,8.9
	c-1.2,3.4-2.8,5.1-4.9,5.1c-0.5,0-1.1-0.2-1.8-0.6c-0.6-0.4-1.2-1-1.6-1.6c-0.4-0.6-1-1.4-1.8-2.2c-0.7-0.9-1.2-1.6-1.4-2.4
	c-0.2-0.7-0.6-1.5-1.1-2.4c-0.5-0.9-0.8-1.3-0.8-1.4c-0.1-0.1-0.2-0.2-0.3-0.2l-0.5,0.3c-3.5,9.1-7.4,15.8-11.8,19.9
	c1.3,1.2,3.1,2.3,5.6,3.4c2.4,1.1,4.5,2.3,6.1,3.7c1.6,1.4,2.7,3.3,3.2,5.9c-0.1,0.2-0.2,0.7-0.3,1.4c-0.1,0.7-0.3,1.3-0.6,1.6
	c-3.8,5.7-12.8,8.6-27,8.6c-3.1,0-6.3-0.3-9.7-0.8c-3.4-0.5-6.3-1.1-8.8-1.8c-2.4-0.6-5.5-1.5-9.3-2.7c-1-0.3-1.6-0.5-2.1-0.6
	c-0.9-0.2-2.2-0.4-4.1-0.5c-1.9-0.1-3.1-0.1-3.5,0c-2.4,2.7-6.2,4.6-11.3,5.7c-5.1,1.2-10.1,1.8-15,1.8c-2.1,0-4.2-0.1-6.2-0.2
	c-2-0.1-4.8-0.4-8.3-0.8c-3.5-0.4-6.5-1-8.9-1.8c-2.4-0.7-4.7-2-6.7-3.7c-2-1.7-3-3.6-2.9-5.6c0-2.4,0.3-4.2,1-5.3
	c0.6-1.1,1.9-2.6,3.7-4.5c0.6-0.1,1.8-0.5,3.5-1.1c1.7-0.6,3.2-1,4.5-1c0.2,0,0.6-0.1,1.3-0.3c0.1-0.1,0.2-0.2,0.2-0.3l-0.2-0.3
	c-2.9-0.6-6.1-3.7-9.6-9.3c-3.5-5.5-5.7-10.2-6.5-14l-0.5-0.2c-0.2,0-0.6,0.6-1.1,1.8c-1.1,2.4-2.7,4.6-4.8,6.5
	c-2.1,1.9-4.4,3-6.9,3.4H4.3c-0.2,0-0.4-0.1-0.5-0.3c-0.1-0.2-0.3-0.4-0.5-0.5c-1.4-3.3-2.1-6.3-2.1-8.9C1.3,99.8,8.8,86,23.8,74.7
	L23.8,74.7z"/>
<path class="st1" d="M27.5,61.6c0,0,80.4,8.9,115-0.9l3.3,14.3c0,0-44.2,17.7-122.1,1l-0.5-8.1C23.2,67.9,27.5,61.6,27.5,61.6z"/>
<path class="st2" d="M54.6,165.4c-2.2,0-4.3-0.1-6.4-0.2c-2.1-0.1-4.9-0.4-8.5-0.8c-3.7-0.4-6.8-1.1-9.4-1.9
	c-2.8-0.9-5.4-2.3-7.7-4.2c-3.4-2.8-4-5.8-3.9-7.9c0-3,0.5-5.2,1.4-6.7c0.8-1.3,2.1-2.9,4.1-5c0.4-0.5,1-0.8,1.6-0.9
	c0.2,0,0.8-0.2,3-1l0,0c-1.7-1.7-3.5-4-5.3-6.8c-2.1-3.4-3.8-6.4-5-9.2c-1,1.4-2.1,2.7-3.5,3.9c-2.6,2.3-5.4,3.7-8.4,4.1
	c-0.1,0-0.3,0-0.4,0H6c-1.1,0-2.2-0.5-2.8-1.5c-0.4-0.3-0.7-0.7-0.8-1.1c-1.5-3.6-2.3-7-2.3-10.1c0-16.7,7.4-31,22-42.6
	c-0.2-1.1-0.3-2.2-0.3-3.6c0-1.5,0.4-3.3,1.1-5.4c0.6-1.7,1.3-3,2-4.1c0-1.3,0.3-2.8,0.8-4.4c0.5-1.7,1.2-3.1,2-4.2
	c0.2-8.5,3.1-17.2,8.6-26.1C41.9,16.7,48.8,10,56.7,6.2l0,0C65.4,2.1,75.5,0,86.8,0c8.3,0,16.7,1.7,24.9,5.2c0.8,0.3,1.5,0.6,2.2,1
	c1.5,0.7,2.1,2.4,1.4,3.9c-0.7,1.5-2.4,2.1-3.9,1.4c-0.7-0.3-1.3-0.6-2-0.9l0,0C102,7.4,94.4,5.9,86.8,5.9
	c-10.5,0-19.8,1.9-27.6,5.6c-6.9,3.4-13,9.3-18.1,17.6c-5.1,8.3-7.7,16.4-7.7,24.2c0,0.8-0.4,1.7-1,2.2c-0.1,0.1-0.7,0.7-1.2,2.4
	c-0.5,1.8-0.6,2.9-0.5,3.6c0.1,0.9-0.2,1.7-0.8,2.3c-0.3,0.3-0.9,1.1-1.5,2.9c-0.7,1.8-0.8,2.9-0.8,3.5c0,1.9,0.3,2.9,0.5,3.4
	c0.6,1.3,0.2,2.7-0.9,3.6C12.8,87.9,5.9,100.7,5.9,116.2c0,1.9,0.4,4.1,1.3,6.5c1.3-0.4,2.6-1.2,3.8-2.3c1.8-1.6,3.2-3.5,4.1-5.5
	l0,0c0.6-1.4,1.6-3.5,3.8-3.5c0.3,0,0.6,0.1,0.9,0.2l0.5,0.2c1,0.3,1.7,1.1,1.9,2.1c0.8,3.5,2.8,7.9,6.2,13.1c4,6.3,6.6,7.7,7.7,8
	c0.9,0.2,1.6,0.8,2,1.5l0.2,0.3c0.2,0.4,0.3,0.9,0.3,1.3c0,0.9-0.4,1.7-1,2.4c-0.3,0.3-0.7,0.6-1.1,0.7c-1,0.3-1.6,0.5-2.2,0.5
	c-0.9,0-2.1,0.3-3.4,0.8c-1.4,0.5-2.4,0.8-3,1c-1.6,1.8-2.4,2.8-2.7,3.3c-0.1,0.1-0.5,1-0.5,3.8c0,0.1,0,0.1,0,0.2
	c0,0.4-0.1,1.6,1.8,3.2c1.7,1.4,3.6,2.5,5.7,3.1c2.3,0.7,5.1,1.2,8.4,1.6c3.4,0.4,6.1,0.7,8.1,0.8c2,0.1,4,0.2,6.1,0.2
	c4.6,0,9.5-0.6,14.3-1.7c4.5-1,7.8-2.7,9.8-4.9c0.4-0.4,0.9-0.7,1.4-0.9c0.7-0.2,1.6-0.2,4.4-0.1c2.1,0.1,3.7,0.3,4.7,0.6
	c0.5,0.1,1.2,0.4,2.3,0.7c3.6,1.1,6.7,2,9.1,2.7c2.3,0.6,5.2,1.2,8.5,1.7c3.2,0.5,6.4,0.8,9.3,0.8c13,0,21.3-2.5,24.5-7.3
	c0-0.1,0.1-0.1,0.1-0.2c0,0,0-0.1,0-0.2c0.1-0.4,0.1-0.8,0.2-1.1c-0.4-1.6-1.1-2.8-2.1-3.6c-1.4-1.2-3.2-2.3-5.3-3.2
	c-2.8-1.2-4.9-2.5-6.4-3.9c-1.2-1.1-1.3-2.9-0.2-4.1c0,0,0.1-0.1,0.1-0.1c4-3.8,7.8-10.2,11.1-18.9c0.2-0.6,0.6-1.1,1.1-1.4l0.5-0.3
	c0.5-0.3,1-0.5,1.6-0.5c0.9,0,1.7,0.4,2.4,1c0.3,0.3,0.5,0.7,0.7,1.1c0.1,0.1,0.2,0.4,0.5,0.9c0.7,1.1,1.2,2.1,1.4,3.1
	c0,0.1,0.2,0.6,0.8,1.3c0.8,1,1.5,1.8,2,2.5c0.2,0.3,0.5,0.6,0.8,0.8c0.1,0.1,0.2,0.1,0.2,0.1c0.8-0.1,1.6-1.7,2.1-3.1
	c1.1-3.1,1.6-5.8,1.6-8c0,0,0,0,0,0c0.1-5.9-1.1-11.7-3.6-17.3c-2.5-5.7-6-11.9-10.4-18.4c-0.8-0.7-1.2-1.6-1.2-2.6v-0.3
	c0-1,0.3-2.3,0.9-4.3c0.6-1.8,0.6-2.6,0.6-2.7c0-3.3-1.5-7.2-4.4-11.6c-0.1-0.2-0.3-0.5-0.3-0.7l-0.2-0.5c-0.1-0.2-0.1-0.3-0.1-0.5
	c-0.5-3.3-1.1-6.1-1.8-8.4c-0.8-2.5-1.5-5.2-2.3-8.1c-0.7-2.6-1.6-4.9-2.6-6.8c-1.1-2.1-2.4-4.2-3.8-6.4c-1.3-2-2.7-3.9-4.4-5.5
	c-1.1-1.1-1.1-3,0-4.1c1.1-1.1,3-1.1,4.1,0c2,2,3.7,4.2,5.2,6.6c1.4,2.3,2.7,4.5,3.9,6.7c1.3,2.3,2.3,5.1,3.1,8.2
	c0.7,2.8,1.5,5.5,2.2,7.9c0.8,2.5,1.4,5.5,2,8.9c3.4,5.2,5.2,10.1,5.2,14.5c0,1.2-0.3,2.7-0.9,4.6c-0.3,0.9-0.5,1.5-0.5,1.8
	c0.1,0.1,0.1,0.2,0.2,0.4c4.5,6.7,8.1,13.2,10.8,19.1c2.8,6.3,4.2,12.9,4.1,19.7c0,2.9-0.6,6.2-1.9,9.9c-2,5.9-5.3,7.1-7.7,7.1
	c-1.1,0-2.3-0.4-3.4-1.1c-1-0.6-1.8-1.5-2.4-2.4c-0.4-0.5-0.9-1.2-1.5-1.9c-0.5-0.6-1-1.2-1.3-1.8c-2.5,5.5-5.1,9.9-8,13.3
	c0.7,0.4,1.5,0.8,2.3,1.1c2.7,1.2,5,2.6,6.8,4.1c2.1,1.8,3.5,4.3,4.1,7.5c0.1,0.6,0.1,1.2-0.2,1.7c0,0.1-0.1,0.3-0.1,0.7
	c-0.2,1.3-0.6,2.2-1.2,3c-4.5,6.5-14.1,9.7-29.3,9.7c-3.2,0-6.6-0.3-10.2-0.8c-3.5-0.5-6.5-1.2-9.1-1.8c-2.5-0.6-5.6-1.6-9.4-2.8
	c0,0,0,0,0,0c-1.1-0.4-1.6-0.5-1.9-0.6c-0.4-0.1-1.3-0.3-3.6-0.4c-1-0.1-1.6-0.1-2.1-0.1c-2.8,2.6-6.8,4.6-12,5.7
	C65,164.8,59.7,165.4,54.6,165.4L54.6,165.4z"/>
<path class="st1" d="M45.4,76.6l-0.5,31.6l17.8,1.2L61,73.9L45.4,76.6z"/>
<path class="st3" d="M114.4,136.4c-0.9,0-1.9-0.4-2.4-1.3c-0.9-1.3-0.6-3.2,0.8-4.1c0.8-0.6,1.6-1.1,2.3-1.8
	c0.7-0.6,1.3-1.2,1.9-1.8c1.1-1.2,3-1.2,4.1-0.1c1.2,1.1,1.2,3,0.1,4.1c-0.7,0.8-1.5,1.5-2.3,2.2c-0.9,0.8-1.9,1.5-2.8,2.2
	C115.6,136.2,115,136.4,114.4,136.4z M124.7,124.6c-0.5,0-0.9-0.1-1.4-0.3c-1.4-0.8-2-2.5-1.2-4c1.3-2.4,2.3-5,3-7.7
	c0.8-3.1,1.2-6.2,1.2-9.3c0-1.6,1.3-2.9,2.9-2.9c1.6,0,2.9,1.3,2.9,2.9c0,3.6-0.4,7.2-1.4,10.8c-0.8,3.1-2,6.2-3.5,9
	C126.8,124.1,125.8,124.6,124.7,124.6L124.7,124.6z"/>
</svg>
