<!-- Generator: Adobe Illustrator 22.0.0, SVG Export Plug-In  -->
<svg version="1.1"
	 xmlns="http://www.w3.org/2000/svg" xmlns:xlink="http://www.w3.org/1999/xlink" xmlns:a="http://ns.adobe.com/AdobeSVGViewerExtensions/3.0/"
	 x="0px" y="0px" width="174.5px" height="142.6px" viewBox="0 0 174.5 142.6" style="enable-background:new 0 0 174.5 142.6;"
	 xml:space="preserve">
<style type="text/css">
	.st0{fill:#FFFFFF;}
	.st1{fill:#885F44;}
	.st2{fill:#FF713C;}
	.st3{fill:#F7D11E;}
</style>
<defs>
</defs>
<path class="st0" d="M15.5,96.9c0,19.6,25.5,35.5,57,35.5c31.5,0,57-15.9,57-35.5c0-19.6-25.5-35.5-57-35.5
	C41,61.4,15.5,77.3,15.5,96.9"/>
<path class="st1" d="M72.5,135.5c-33.1,0-60.1-17.3-60.1-38.6s27-38.6,60.1-38.6c33.1,0,60.1,17.3,60.1,38.6S105.6,135.5,72.5,135.5
	z M72.5,64.5c-29.7,0-53.8,14.5-53.8,32.3c0,17.8,24.1,32.3,53.8,32.3s53.8-14.5,53.8-32.3C126.3,79,102.2,64.5,72.5,64.5z"/>
<path class="st2" d="M129.5,68.8c-2.4-0.7-4-1.2-2.8-4.3c2.7-6.8,3-12.6,0.1-16.7c-5.5-7.8-20.4-7.4-37.5-0.2c0,0-5.4,2.4-4-1.9
	c2.6-8.5,2.2-15.6-1.9-19.7c-9.3-9.3-34,0.4-55.2,21.5C12.4,63.3,3.2,80.1,3.2,94.7c0,27.8,35.7,44.7,70.6,44.7
	c45.7,0,76.2-26.6,76.2-47.7C149.9,79,139.2,71.7,129.5,68.8L129.5,68.8z M73.8,129.4c-27.8,2.7-51.9-9.8-53.7-28.1
	C18.3,83,39.4,66,67.3,63.2c27.8-2.8,51.9,9.8,53.7,28.1C122.8,109.6,101.7,126.7,73.8,129.4z"/>
<path class="st1" d="M73.7,142.6C37.5,142.6,0,124.7,0,94.7C0,79.6,9.2,62,26,45.2c15.8-15.8,34.4-26,47.4-26
	c5.1,0,9.3,1.5,12.2,4.5c4.5,4.5,5.6,11.5,3.3,20.5c8.7-3.5,16.8-5.4,23.6-5.4c7.8,0,13.6,2.4,16.8,7.1c3.4,4.9,3.5,11.5,0.3,19.6
	c0.2,0.1,0.5,0.1,0.7,0.2c14.2,4.4,22.6,14.1,22.6,26C153.1,115.7,119.1,142.6,73.7,142.6z M73.5,25.5c-11.4,0-28.3,9.5-43,24.1
	C14.9,65.3,6.3,81.2,6.3,94.7c0,26,34.3,41.6,67.4,41.6c45.2,0,73-25.9,73-44.5c0-13.3-13.9-18.6-18.2-20c-1.7-0.5-3.9-1.2-4.9-3.3
	c-1-2.2-0.1-4.4,0.2-5.2c1.7-4.2,3.1-9.9,0.4-13.8c-2.5-3.6-7.7-4.4-11.7-4.4c-6.2,0-13.8,1.8-22.1,5.3l-0.6,0.2l-0.1,0
	c-0.9,0.3-2.1,0.6-3.3,0.6c-2.2,0-3.4-1.1-3.9-1.8c-0.9-1.3-1.1-2.9-0.5-4.9c2.3-7.6,2-13.4-1.1-16.5C79.5,26.4,76.8,25.5,73.5,25.5
	L73.5,25.5z M66.2,133c-26.7,0-47.4-13.2-49.2-31.3c-1-9.9,3.9-19.7,13.6-27.6C40,66.4,52.9,61.5,67,60.1c2.6-0.3,5.3-0.4,7.9-0.4
	c26.7,0,47.4,13.2,49.2,31.3c2,20-20.4,38.6-50,41.5C71.5,132.8,68.9,133,66.2,133L66.2,133z M74.9,66c-2.4,0-4.9,0.1-7.3,0.4
	c-12.9,1.3-24.6,5.7-33,12.5c-8.1,6.5-12.1,14.4-11.3,22.1c1.4,14.6,19.9,25.7,43,25.7c2.4,0,4.9-0.1,7.3-0.4
	c26.1-2.6,46-18.1,44.3-34.6C116.4,77,97.9,66,74.9,66z"/>
<path class="st3" d="M159.9,17.9c-11-12.2-27.3-16.9-42.4-13.7h0c-3.5,0.7-5.7,4.2-5,7.6c0.7,3.5,4.2,5.7,7.6,5
	c10.7-2.3,22.3,1.1,30.1,9.8c7.8,8.7,10,20.6,6.6,31l0,0c-1.1,3.4,0.8,7,4.2,8.1c3.4,1.1,7-0.8,8.1-4.1c0,0,0,0,0,0
	C173.9,46.8,170.9,30.1,159.9,17.9"/>
<path class="st1" d="M163.1,69L163.1,69c-1,0-2-0.2-3-0.5c-2.4-0.8-4.4-2.5-5.6-4.8c-1.2-2.3-1.4-4.9-0.6-7.3
	c3.1-9.7,0.8-20.4-6-27.9c-5.4-6-13.1-9.4-21.2-9.4c-2,0-4,0.2-6,0.6c-0.7,0.1-1.3,0.2-2,0.2c-4.5,0-8.4-3.2-9.4-7.6
	c-0.5-2.5-0.1-5.1,1.3-7.2c1.4-2.2,3.5-3.6,6-4.2l0.3-0.1c3.2-0.6,6.4-1,9.6-1c13.5,0,26.4,5.7,35.4,15.7
	c11.3,12.5,15.1,30.1,10.1,46.2v0l-0.2,0.5C170.9,66.4,167.2,69,163.1,69L163.1,69z M126.8,12.9c9.8,0,19.3,4.2,25.9,11.5
	c8.3,9.2,11.1,22.3,7.3,34.1c-0.6,1.7,0.4,3.6,2.1,4.1c1.6,0.5,3.3-0.3,4-1.7v0l0.2-0.6c4.5-13.8,1.1-29.4-8.7-40.3
	c-7.8-8.7-19-13.7-30.7-13.7c-2.9,0-5.8,0.3-8.7,0.9l-0.1,0c-0.8,0.2-1.5,0.7-2,1.4c-0.5,0.7-0.6,1.6-0.5,2.5
	c0.4,1.7,2.1,2.9,3.9,2.5C121.9,13.1,124.4,12.9,126.8,12.9L126.8,12.9z"/>
<path class="st3" d="M142.9,33.2c-5.4-6-13.3-8.2-20.6-6.7c-3,0.6-4.9,3.6-4.3,6.6c0.6,3,3.6,4.9,6.6,4.3v0
	c3.6-0.8,7.5,0.3,10.1,3.3c2.6,2.9,3.3,6.9,2.2,10.4h0c-0.9,2.9,0.7,6,3.6,7c2.9,0.9,6-0.7,7-3.6C149.8,47.2,148.3,39.1,142.9,33.2"
	/>
<path class="st1" d="M142.2,61.4c-0.9,0-1.8-0.1-2.7-0.4c-4.6-1.5-7.1-6.4-5.6-11c0.8-2.5,0.2-5.3-1.6-7.3c-1.8-1.9-4.5-2.8-7.1-2.3
	l-3.8,0.8v-0.8c-3.2-0.8-5.8-3.3-6.5-6.6c-0.5-2.3-0.1-4.6,1.2-6.6c1.3-2,3.2-3.3,5.5-3.8c1.7-0.4,3.5-0.5,5.2-0.5
	c7,0,13.8,3,18.4,8.2c5.9,6.6,7.9,15.9,5.2,24.3C149.3,59,146,61.4,142.2,61.4L142.2,61.4z M127.7,34c3.6,0.2,6.9,1.9,9.3,4.5
	c3.3,3.6,4.4,8.8,2.9,13.5c-0.4,1.3,0.3,2.6,1.5,3c1.2,0.4,2.6-0.3,3-1.5c2-6.3,0.6-13.2-3.9-18.1c-4.4-4.9-11.3-7.1-17.6-5.7
	c-0.6,0.1-1.2,0.5-1.5,1c-0.3,0.5-0.5,1.2-0.3,1.8c0.3,1.3,1.5,2.1,2.8,1.8l3.8-0.8V34z"/>
<path class="st2" d="M76.6,77.3c-13.3-3.4-28.2,3.2-34,14.8c-5.9,11.9-0.2,25.1,13.2,29.4c13.9,4.5,30.2-2.4,35.9-15.2
	C97.3,93.8,90.3,80.9,76.6,77.3L76.6,77.3z M66.5,107.7c-2.7,4.3-8.5,6.2-12.8,4.2c-4.3-1.9-5.5-6.9-2.9-11.1
	c2.7-4.2,8.2-6,12.5-4.2C67.7,98.4,69.1,103.4,66.5,107.7z M75.4,96.3c-1,1.7-3.1,2.5-4.8,1.8c-1.7-0.7-2.2-2.5-1.2-4.2
	c1-1.6,3-2.4,4.7-1.8C75.7,92.8,76.3,94.7,75.4,96.3z"/>
<path class="st1" d="M64.6,126.1L64.6,126.1c-3.4,0-6.7-0.5-9.8-1.5c-7.5-2.4-13.1-7.4-15.9-13.9c-2.7-6.3-2.4-13.4,0.8-19.9
	c5.2-10.5,17-17.5,29.6-17.5c2.7,0,5.4,0.3,8,1c7.7,2,14,6.9,17.2,13.4c3,6.2,3,13.3,0,19.9C89.7,118.7,77.7,126.1,64.6,126.1
	L64.6,126.1z M69.4,79.5c-10.2,0-19.8,5.6-23.9,14c-2.4,4.8-2.6,10-0.7,14.7c2.1,4.9,6.3,8.6,12,10.4c2.5,0.8,5.1,1.2,7.9,1.2h0
	c10.4,0,20.3-6.1,24.2-14.7c2.2-4.9,2.2-10.1,0-14.6c-2.3-4.9-7.1-8.5-13.1-10.1C73.7,79.8,71.6,79.5,69.4,79.5z M57.4,115.9
	c-1.8,0-3.5-0.4-5.1-1.1c-2.8-1.3-4.8-3.6-5.7-6.5c-0.9-3-0.3-6.4,1.5-9.2c2.5-3.9,7-6.4,11.7-6.4c1.7,0,3.3,0.3,4.7,0.9
	c0.4,0.2,0.8,0.4,1.2,0.6c0.1-0.7,0.4-1.3,0.7-1.9c1.8-3,5.6-4.3,8.6-3.1c1.5,0.6,2.8,1.8,3.4,3.4c0.6,1.7,0.5,3.6-0.5,5.2
	c-1.5,2.5-4.5,4-7.3,3.6c0.4,2.6-0.1,5.4-1.7,7.9C66.7,113.3,62.1,115.9,57.4,115.9L57.4,115.9z M59.8,99c-2.5,0-5,1.4-6.4,3.5
	c-0.9,1.3-1.1,2.8-0.8,4.1c0.3,1.1,1.1,2,2.3,2.5c0.7,0.3,1.6,0.5,2.4,0.5c2.5,0,5.1-1.4,6.4-3.5c0.8-1.4,1.1-2.8,0.7-4.1
	c-0.4-1.1-1.2-2-2.3-2.5C61.4,99.2,60.7,99,59.8,99L59.8,99z"/>
</svg>
