<!-- Generator: Adobe Illustrator 22.0.0, SVG Export Plug-In  -->
<svg version="1.1"
	 xmlns="http://www.w3.org/2000/svg" xmlns:xlink="http://www.w3.org/1999/xlink" xmlns:a="http://ns.adobe.com/AdobeSVGViewerExtensions/3.0/"
	 x="0px" y="0px" width="172.4px" height="140.5px" viewBox="0 0 172.4 140.5" style="enable-background:new 0 0 172.4 140.5;"
	 xml:space="preserve">
<style type="text/css">
	.st0{fill:#D81E06;}
</style>
<defs>
</defs>
<path class="st0" d="M116.9,42.5c1.9,0,3.8,0,5.7,0.3C117.2,18.2,91,0,61,0C27.5,0,0,23,0,51.7c0,16.6,8.9,30.6,24.3,41.2l-6.1,18.2
	l21.4-10.5c7.7,1.6,13.7,3.2,21.4,3.2c1.9,0,3.8,0,6.1-0.3c-1.3-4.2-1.9-8.3-1.9-12.8C65.1,64.2,87.8,42.5,116.9,42.5L116.9,42.5z
	 M84,25.9c4.8,0,7.7,3.2,7.7,7.7s-3.2,7.7-7.7,7.7c-4.8,0-9.3-3.2-9.3-7.7C74.7,28.7,79.5,25.9,84,25.9z M41.7,40.1
	c-4.8,0-9.3-3.2-9.3-7.6c0-4.7,4.8-7.6,9.3-7.6s7.7,3.2,7.7,7.6C49.5,37,46.2,40.1,41.7,40.1z"/>
<path class="st0" d="M172.4,90c0-24.6-24.3-44.4-51.7-44.4c-29.1,0-52.1,20.1-52.1,44.4c0,24.6,23,44.4,52.1,44.4
	c6.1,0,12.1-1.6,18.2-3.2l16.6,9.3l-4.5-15.3C163.2,115.9,172.4,103.8,172.4,90L172.4,90z M103.8,82.4c-2.9,0-6.1-2.9-6.1-6.1
	c0-2.9,3.2-6.1,6.1-6.1c4.5,0,7.7,3.2,7.7,6.1C111.4,79.5,108.6,82.4,103.8,82.4z M138.5,80.9c-2.9,0-6.1-2.9-6.1-6
	c0-2.9,3.2-6,6.1-6c4.5,0,7.7,3.2,7.7,6C146.3,78.1,143,80.9,138.5,80.9z"/>
</svg>
