<!-- Generator: Adobe Illustrator 22.0.0, SVG Export Plug-In  -->
<svg version="1.1"
	 xmlns="http://www.w3.org/2000/svg" xmlns:xlink="http://www.w3.org/1999/xlink" xmlns:a="http://ns.adobe.com/AdobeSVGViewerExtensions/3.0/"
	 x="0px" y="0px" width="200px" height="200px" viewBox="0 0 200 200" style="enable-background:new 0 0 200 200;"
	 xml:space="preserve">
<style type="text/css">
	.st0{fill:#D81E06;}
</style>
<defs>
</defs>
<path class="st0" d="M45,112.6c-2.4,1.9-4.9,4.7-5.6,8.2c-1,4.8-0.2,10.8,4.4,15.6c5.6,5.7,14.2,7.3,17.9,7.6
	c10,0.7,20.7-4.3,28.8-9.9c3.2-2.2,8.6-6.7,13.7-13.6c-11.6-6-26.1-12.6-41.5-12C54.8,108.8,49.1,110.4,45,112.6z M192,139.1
	c5.1-12,8-25.2,8-39.1C200,44.9,155.1,0,100,0S0,44.9,0,100s44.9,100,100,100c33.3,0,62.8-16.4,81-41.4c-17.2-8.5-45.5-22.6-63-31.1
	c-8.3,9.5-20.6,19-34.5,23.1c-8.7,2.6-16.6,3.6-24.8,1.9S44.5,147,41,143.2c-1.8-2-3.8-4.4-5.3-7.4c0.1,0.2,0.2,0.4,0.2,0.6
	c0,0-0.9-1.5-1.5-3.8c-0.3-1.2-0.6-2.3-0.7-3.5c-0.1-0.8-0.1-1.7,0-2.5c-0.1-1.5,0-3.1,0.3-4.7c0.8-4,2.5-8.6,6.9-12.8
	c9.6-9.4,22.4-9.9,29.1-9.8c9.8,0.1,27,4.4,41.4,9.5c4-8.5,6.6-17.6,8.2-23.7h-60v-6.5h30.8v-13H53.2V59h37.2V46
	c0-1.8,0.4-3.2,3.2-3.2h14.6V59h40.5v6.5h-40.5v13h32.4c0,0-3.3,18.1-13.4,36C149.7,122.5,181.5,134.9,192,139.1z"/>
</svg>
