<!-- Generator: Adobe Illustrator 22.0.0, SVG Export Plug-In  -->
<svg version="1.1"
	 xmlns="http://www.w3.org/2000/svg" xmlns:xlink="http://www.w3.org/1999/xlink" xmlns:a="http://ns.adobe.com/AdobeSVGViewerExtensions/3.0/"
	 x="0px" y="0px" width="162.1px" height="166.8px" viewBox="0 0 162.1 166.8" style="enable-background:new 0 0 162.1 166.8;"
	 xml:space="preserve">
<style type="text/css">
	.st0{fill:#FFD524;}
	.st1{fill:#6B400D;}
</style>
<defs>
</defs>
<path class="st0" d="M36.6,111.7h95.8l22.1-76.8c0.7-2.6,0.4-5-1-6.9c-1.4-1.8-3.6-2.8-6.2-2.8h-1.5C142.3,32,130.9,47,96,58.7
	C57.4,71.6,27.1,68,18,66.4l6.3,36.5C26,107.9,31.4,111.7,36.6,111.7L36.6,111.7z M39.4,141.7c-4.9,0-8.9,4-8.9,8.9
	c0,4.9,4,8.9,8.9,8.9c4.9,0,8.9-4,8.9-8.9C48.2,145.7,44.3,141.7,39.4,141.7z M125.2,141.7c-4.9,0-8.9,4-8.9,8.9
	c0,4.9,4,8.9,8.9,8.9c4.9,0,8.9-4,8.9-8.9C134,145.7,130.1,141.7,125.2,141.7z"/>
<path class="st1" d="M37.8,25.2h3.9c2,0,3.6-1.6,3.6-3.6S43.7,18,41.8,18h-3.9c-2,0-3.6,1.6-3.6,3.6S35.8,25.2,37.8,25.2z"/>
<path class="st1" d="M159.3,23.7c-2.7-3.6-7.1-5.7-11.9-5.7H56.1c-2,0-3.6,1.6-3.6,3.6s1.6,3.6,3.6,3.6h91.2c2.6,0,4.8,1,6.2,2.8
	c1.4,1.9,1.8,4.3,1,6.9l-22.1,76.8H36.6c-5.2,0-10.6-3.8-12.4-8.7L18,66.4L7.1,3C6.8,1,4.9-0.3,3,0.1C1,0.4-0.3,2.2,0.1,4.2
	l17.1,100.3c0,0.2,0.1,0.4,0.1,0.5c2.7,7.9,11,13.9,19.3,13.9h98.5c1.6,0,3-1.1,3.5-2.6l22.8-79.4C162.8,32.1,162,27.3,159.3,23.7z"
	/>
<path class="st1" d="M25.1,25.2c2,0,3.6-1.6,3.6-3.6S27.1,18,25.1,18H25c-2,0-3.5,1.6-3.5,3.6S23.1,25.2,25.1,25.2z M39.4,123.9
	c-11.8,0-21.3,9.6-21.3,21.4s9.6,21.4,21.3,21.4s21.3-9.6,21.3-21.4C60.7,133.5,51.1,123.9,39.4,123.9z M39.4,159.6
	c-7.8,0-14.1-6.4-14.1-14.3c0-7.9,6.3-14.3,14.1-14.3s14.1,6.4,14.1,14.3C53.5,153.2,47.1,159.6,39.4,159.6z M125.2,123.9
	c-11.8,0-21.3,9.6-21.3,21.4s9.6,21.4,21.3,21.4s21.3-9.6,21.3-21.4C146.5,133.5,137,123.9,125.2,123.9z M125.2,159.6
	c-7.8,0-14.1-6.4-14.1-14.3c0-7.9,6.3-14.3,14.1-14.3s14.1,6.4,14.1,14.3C139.3,153.2,133,159.6,125.2,159.6z"/>
</svg>
