<!-- Generator: Adobe Illustrator 22.0.0, SVG Export Plug-In  -->
<svg version="1.1"
	 xmlns="http://www.w3.org/2000/svg" xmlns:xlink="http://www.w3.org/1999/xlink" xmlns:a="http://ns.adobe.com/AdobeSVGViewerExtensions/3.0/"
	 x="0px" y="0px" width="175px" height="152.7px" viewBox="0 0 175 152.7" style="enable-background:new 0 0 175 152.7;"
	 xml:space="preserve">
<style type="text/css">
	.st0{fill:#FFD524;}
	.st1{fill:#6B400D;}
</style>
<defs>
</defs>
<path class="st0" d="M87.5,25.3c21.9,0,33.3,20.1,38.4,28.1c0-0.3,0-0.6,0-0.9c0-18.1,0-45.5-37.6-45.5C51.9,7,50.8,32.8,50.8,50.8
	C55.3,41.8,65.4,25.3,87.5,25.3z M20.6,123.6c-7.3,4.9-12.1,19.5-13.5,25.6h76.3l-25.5-42.9C50.3,109.3,28.9,118,20.6,123.6z
	 M154.1,123.6c-8.2-5.5-29.6-14.3-37.3-17.3l-25.5,42.9h76.6C167.4,146.2,164,130.3,154.1,123.6L154.1,123.6z"/>
<path class="st1" d="M88.3,106.6L88.3,106.6c27.3,0,44.6-35.5,44.6-54C133,35.5,133,0,88.4,0S43.8,35.5,43.8,52.6
	c0,11.3,6.6,30,18.8,42.2C70.3,102.5,79.2,106.6,88.3,106.6L88.3,106.6z M50.8,50.9C50.8,32.8,51.9,7,88.4,7
	c37.6,0,37.6,27.4,37.6,45.5c0,0.3,0,0.6,0,0.9c-0.5,16.7-15.8,46.1-37.6,46.1h0c-7.3,0-14.3-3.3-20.7-9.7
	C56.7,78.9,50.8,62.5,50.8,52.6C50.8,52.6,50.8,50.9,50.8,50.9z"/>
<path class="st1" d="M175,148.6c-0.1-0.9-3.5-21.8-16.9-30.9c-10.7-7.2-40.2-18.7-41.4-19.2c-1.6-0.6-3.4,0-4.3,1.5L87.4,142
	l-24.9-41.9c-0.9-1.5-2.7-2.1-4.3-1.5c-1.3,0.5-30.7,12-41.4,19.2c-11.5,7.8-16.4,29.7-16.6,30.7c-0.4,1.9,0.8,3.8,2.7,4.2
	c0.3,0.1,0.5,0.1,0.7,0.1c1.6,0,3.1-1.1,3.4-2.8c0-0.2,0.1-0.5,0.2-0.7c1.4-6.1,6.2-20.6,13.5-25.6c8.2-5.5,29.6-14.3,37.3-17.3
	l25.5,42.9l0.9,1.5c0.6,1.1,1.8,1.7,3,1.7s2.4-0.6,3-1.7l0.9-1.5l25.5-42.9c7.7,3,29.1,11.8,37.3,17.3c9.9,6.7,13.3,22.6,13.8,25.6
	c0.1,0.3,0.1,0.5,0.1,0.5c0.3,1.9,2.1,3.3,4,2.9C173.9,152.4,175.3,150.6,175,148.6z"/>
</svg>
