<!-- Generator: Adobe Illustrator 22.0.0, SVG Export Plug-In  -->
<svg version="1.1"
	 xmlns="http://www.w3.org/2000/svg" xmlns:xlink="http://www.w3.org/1999/xlink" xmlns:a="http://ns.adobe.com/AdobeSVGViewerExtensions/3.0/"
	 x="0px" y="0px" width="174.8px" height="174.9px" viewBox="0 0 174.8 174.9" style="enable-background:new 0 0 174.8 174.9;"
	 xml:space="preserve">
<style type="text/css">
	.st0{fill:#6B400D;}
	.st1{fill:#FFD524;}
</style>
<defs>
</defs>
<path class="st0" d="M26,26.3c-3.2,3.2-3.2,8.4,0,11.6c3.2,3.2,8.4,3.2,11.6,0c3.2-3.2,3.2-8.4,0-11.6C34.4,23.1,29.2,23.1,26,26.3z
	"/>
<path class="st1" d="M41.3,55.1l2.6,29.1c0.2,1.8,1.3,4.3,2.6,5.6l53.8,53.8c1.3,1.3,3.4,1.3,4.7,0l39.1-39.1c1.3-1.3,1.3-3.4,0-4.7
	L90.3,46.1c-1.3-1.3-3.8-2.5-5.6-2.6L83,43.3l-19.4-1.8l-8-0.7c-1.8-0.2-4.4,0.8-5.6,2l-6.6,6.6C42,50.8,41.1,53.3,41.3,55.1
	L41.3,55.1z"/>
<path class="st0" d="M172.2,96.4L85.4,9.6c-2.7-2.7-7.6-5-11.3-5.3L71.3,4c-2-0.2-3.8,1.3-4,3.3c-0.2,2,1.3,3.8,3.3,4l2.7,0.3
	c2.1,0.2,5.4,1.7,6.8,3.2l86.8,86.8c0.6,0.6,0.6,1.7,0,2.3L103.9,167c-0.6,0.6-1.7,0.6-2.3,0L14.7,80.3c-1.5-1.5-3-4.8-3.2-6.8
	L7.4,26.4c-0.2-1.8,0.9-4.8,2.2-6.2L20.3,9.6c1.3-1.3,4.3-2.4,6.2-2.2l12.9,1.2c2,0.2,3.8-1.3,4-3.3c0.2-2-1.3-3.8-3.3-4L27.1,0
	c-4-0.3-9.2,1.5-12,4.4L4.4,15.1c-2.9,2.9-4.7,8-4.4,12l4.2,47c0.3,3.8,2.6,8.7,5.3,11.4l86.8,86.8c1.8,1.8,4.1,2.6,6.4,2.6
	c2.3,0,4.6-0.9,6.4-2.6l63.1-63.1C175.7,105.6,175.7,99.9,172.2,96.4L172.2,96.4z"/>
<path class="st0" d="M58.9,10.3l0.8,0.1c0.1,0,0.2,0,0.4,0c1.9,0,3.5-1.4,3.7-3.3c0.2-2-1.3-3.8-3.3-4L59.6,3c-2-0.2-3.8,1.3-4,3.3
	C55.4,8.3,56.9,10.1,58.9,10.3z"/>
</svg>
